<!--?xml version="1.0" encoding="utf-8"?-->
<!-- Generator: Adobe Illustrator 18.1.1, SVG Export Plug-In . SVG Version: 6.00 Build 0)  -->

<svg version="1.1" id="_x32_" xmlns="http://www.w3.org/2000/svg" xmlns:xlink="http://www.w3.org/1999/xlink" x="0px" y="0px" viewBox="0 0 512 512" style="width: 256px; height: 256px; opacity: 1;" xml:space="preserve">
<style type="text/css">
	.st0{fill:#4B4B4B;}
</style>
<g>
	<path class="st0" d="M224.683,180.115c1.619,1.244,2.822,3.004,3.371,5.003c0.749,2.729,3.572,4.334,6.3,3.585
		c2.729-0.755,4.335-3.578,3.585-6.307c-1.164-4.194-3.652-7.812-6.983-10.393c-3.331-2.576-7.551-4.12-12.079-4.12
		c-4.502,0-8.696,1.518-12.013,4.067c-3.331,2.548-5.819,6.126-7.01,10.267c-0.776,2.722,0.803,5.565,3.525,6.341
		c2.729,0.775,5.565-0.796,6.341-3.525c0.555-1.98,1.766-3.712,3.378-4.943c1.605-1.231,3.585-1.953,5.779-1.953
		C221.078,178.136,223.064,178.871,224.683,180.115z" style="fill: rgb(75, 75, 75);"></path>
	<path class="st0" d="M306.149,172.002c-3.338-2.576-7.559-4.12-12.087-4.12c-4.501,0-8.695,1.518-12.012,4.067
		c-3.324,2.548-5.812,6.12-7.003,10.267c-0.775,2.722,0.803,5.558,3.518,6.341c2.729,0.775,5.565-0.796,6.341-3.525
		c0.562-1.98,1.766-3.712,3.378-4.943c1.612-1.231,3.585-1.953,5.778-1.953c2.208,0,4.194,0.736,5.812,1.979
		c1.612,1.244,2.823,3.004,3.365,5.003c0.755,2.729,3.578,4.334,6.307,3.585c2.729-0.755,4.338-3.578,3.588-6.307
		C311.968,178.202,309.48,174.584,306.149,172.002z" style="fill: rgb(75, 75, 75);"></path>
	<path class="st0" d="M358.951,157.488c-4.883-22.935-17.156-43.134-34.205-57.969c-18.631-16.2-43.024-26.032-69.645-26.032
		c-26.593,0-50.946,9.798-69.56,25.958c-17.156,14.882-29.49,35.182-34.339,58.237c-7.076,0.923-13.444,4.207-18.233,8.989
		c-5.725,5.733-9.284,13.712-9.284,22.46c0,8.729,3.559,16.715,9.284,22.44c5.725,5.725,13.712,9.284,22.453,9.284
		c0.595,0,1.184-0.014,1.772-0.04c4.508,10.715,10.742,20.54,18.327,29.135l-1.197,0.89l101.064,136.226l11.765-8.735
		l-19.805-26.688l65.398-96.662l-1.673-1.137c9.27-9.504,16.775-20.735,21.992-33.188c1.137,0.127,2.328,0.201,3.505,0.201
		c8.748,0,16.721-3.559,22.446-9.284c5.726-5.725,9.297-13.711,9.297-22.44c0-8.748-3.571-16.728-9.297-22.46
		C373.814,161.474,366.75,158.063,358.951,157.488z M243.384,88.897c3.839-0.488,7.739-0.756,11.718-0.756
		c5.378,0,10.642,0.475,15.765,1.364c0.528,0.609,1.077,1.318,1.625,2.14c2.314,3.512,4.648,9.023,4.662,17.745
		c0.006,6.601-1.385,15.07-5.305,25.724c-12.36-9.939-19.396-19.096-23.382-26.64c-4.334-8.227-5.117-14.581-5.124-18.26
		C243.343,89.72,243.364,89.285,243.384,88.897z M234.555,90.455c0.034,4.977,1.191,12.762,6.14,22.119
		c2.214,4.194,5.177,8.695,9.11,13.404c-3.933-1.585-7.866-3.063-11.572-4.628c-6.367-2.682-11.958-5.685-15.745-9.685
		c-1.913-2-3.404-4.247-4.468-6.956c-0.883-2.254-1.445-4.882-1.619-7.993C222.155,94.027,228.227,91.907,234.555,90.455z
		 M368.663,201.198c-3.124,3.103-7.344,5.01-12.093,5.01c-1.953,0-3.833-0.355-5.645-0.977l-6.943-2.448l-2.421,6.943
		c-6.207,17.885-17.825,33.275-32.884,44.171c-3.94,2.856-8.114,5.411-12.494,7.604c0.308,2.007,0.455,4.034,0.455,6.094
		c0,3.558-0.455,7.043-1.338,10.401c2.04-0.836,4.04-1.733,6.006-2.696l-43.208,63.876l-46.432-62.592
		c1.719,0.776,3.458,1.519,5.231,2.201c-1.024-3.586-1.552-7.351-1.552-11.19c0-1.772,0.12-3.545,0.348-5.27
		c-4.922-2.348-9.591-5.124-13.972-8.274c-15.029-10.815-26.654-26.092-32.941-43.857l-2.267-6.421l-6.562,1.806
		c-1.512,0.408-3.01,0.629-4.528,0.629c-4.742,0-8.983-1.906-12.086-5.01c-3.103-3.104-5.01-7.337-5.01-12.066
		c0-4.749,1.907-8.983,5.01-12.086c3.103-3.11,7.344-5.01,12.086-5.01c0.288,0,0.729,0.034,1.344,0.074l6.816,0.528l1.01-6.736
		c3.304-22.005,14.474-41.441,30.54-55.387c4.013-3.478,8.334-6.622,12.908-9.37c0.401,2.482,1.01,4.809,1.866,6.949
		c1.344,3.391,3.244,6.327,5.485,8.842c3.933,4.401,8.849,7.498,13.986,10.039c7.718,3.793,16.052,6.415,23.048,9.685
		c3.505,1.626,6.662,3.391,9.244,5.432c2.589,2.04,4.609,4.307,6.046,7.07c0.776,1.492,2.321,2.401,4.006,2.368
		c1.679-0.04,3.178-1.023,3.886-2.555c7.598-16.461,10.334-29.41,10.334-39.583c0.013-6.936-1.298-12.554-3.137-16.969
		c12.039,3.819,23.008,10.046,32.336,18.153c16.079,13.993,27.215,33.469,30.499,55.528l1.077,7.264l7.264-1.11
		c0.97-0.147,1.82-0.221,2.589-0.221c4.748,0,8.969,1.9,12.093,5.01c3.103,3.103,4.989,7.337,5.003,12.086
		C373.653,193.86,371.767,198.094,368.663,201.198z" style="fill: rgb(75, 75, 75);"></path>
	<path class="st0" d="M255.999,235.744c-8.776,0-16.788,3.579-22.527,9.33c-5.752,5.739-9.337,13.758-9.331,22.527
		c-0.006,8.768,3.579,16.782,9.331,22.526c5.739,5.753,13.751,9.331,22.527,9.324c8.769,0.006,16.781-3.572,22.527-9.324
		c5.752-5.745,9.33-13.758,9.324-22.526c0.007-8.769-3.572-16.788-9.324-22.527C272.78,239.322,264.767,235.744,255.999,235.744z
		 M270.821,273.855c-1.218,2.876-3.264,5.344-5.84,7.082c-2.575,1.733-5.625,2.736-8.982,2.736c-2.247,0-4.341-0.449-6.261-1.258
		c-2.876-1.211-5.344-3.264-7.076-5.833c-1.739-2.575-2.742-5.625-2.742-8.982c0-2.248,0.455-4.341,1.258-6.261
		c1.218-2.869,3.264-5.344,5.832-7.083c2.582-1.732,5.632-2.736,8.99-2.736c2.24,0,4.334,0.448,6.254,1.258
		c2.876,1.217,5.344,3.27,7.083,5.839c1.739,2.568,2.736,5.625,2.742,8.983C272.071,269.842,271.623,271.935,270.821,273.855z" style="fill: rgb(75, 75, 75);"></path>
	<path class="st0" d="M255.999,216.641c-21.631,0-39.182,10.488-39.182,23.437c0,3.86,1.565,7.504,4.348,10.735
		c1.686-2.789,3.732-5.391,6.1-7.752c7.652-7.678,17.865-11.906,28.72-11.906c10.902,0,21.096,4.227,28.761,11.918
		c2.368,2.348,4.401,4.95,6.086,7.739c2.782-3.231,4.348-6.876,4.348-10.735C295.18,227.129,277.643,216.641,255.999,216.641z" style="fill: rgb(75, 75, 75);"></path>
	<path class="st0" d="M421.135,175.968l-8.782,0.448l8.782-0.455c-1.491-29.53-11.444-55.481-25.624-77.453
		c-10.635-16.494-23.624-30.808-37.322-43.041c-20.547-18.346-42.659-32.018-61.11-41.208c-9.23-4.595-17.537-8.066-24.379-10.434
		c-3.424-1.191-6.481-2.107-9.19-2.756c-1.358-0.321-2.629-0.576-3.846-0.762C258.439,0.127,257.269,0,255.999,0
		c-1.137,0-2.181,0.1-3.264,0.247c-2.08,0.294-4.307,0.796-6.828,1.499c-4.703,1.304-10.408,3.317-16.929,6.053
		c-11.411,4.782-25.283,11.791-39.877,21.068c-21.865,13.926-45.348,32.948-64.009,57.401c-9.324,12.226-17.43,25.818-23.437,40.793
		c-6.013,14.962-9.899,31.309-10.789,48.9c-0.428,8.388-0.662,17.604-0.662,27.476c0,27.556,1.832,60.25,6.622,93.92
		c3.599,25.256,8.842,51.06,16.28,75.674c5.572,18.46,12.374,36.252,20.661,52.639c12.434,24.574,28.232,46.064,48.452,61.574
		c10.106,7.746,21.316,13.966,33.637,18.213c12.32,4.261,25.724,6.548,40.144,6.542c17.082,0.006,32.76-3.211,46.873-9.103
		c12.357-5.15,23.507-12.327,33.486-21.035c17.47-15.257,31.396-35.149,42.566-57.555c16.734-33.616,27.369-73.005,33.917-111.906
		c6.535-38.9,8.949-77.313,8.956-108.956C421.797,193.566,421.556,184.349,421.135,175.968z M397.772,294.884
		c-3.492,24.534-8.588,49.515-15.705,73.065c-5.324,17.664-11.798,34.527-19.517,49.79c-11.584,22.922-25.992,42.185-43.462,55.555
		c-8.739,6.689-18.249,11.946-28.684,15.551c-10.447,3.605-21.831,5.578-34.405,5.578c-14.902-0.007-28.146-2.769-40.111-7.752
		c-10.468-4.368-19.979-10.454-28.687-18.059c-15.236-13.277-27.978-31.235-38.392-52.144
		c-15.638-31.356-25.985-69.252-32.319-106.983c-6.341-37.723-8.708-75.293-8.708-106.046c0-9.592,0.227-18.527,0.635-26.58
		c1.332-26.098,10.04-48.933,22.842-68.825c9.604-14.902,21.531-28.091,34.259-39.462c19.089-17.056,39.99-29.998,57.227-38.58
		c8.615-4.288,16.314-7.491,22.313-9.564c2.983-1.03,5.552-1.792,7.504-2.254c0.984-0.234,1.806-0.394,2.415-0.488
		c0.608-0.094,1.01-0.114,1.024-0.107c0.013-0.007,0.334,0.013,0.829,0.08c0.963,0.134,2.575,0.468,4.562,1.023
		c3.746,1.037,8.869,2.816,14.835,5.324c10.448,4.388,23.537,10.976,37.238,19.691c20.554,13.075,42.492,30.954,59.468,53.233
		c8.494,11.137,15.771,23.37,21.109,36.674c5.337,13.31,8.748,27.684,9.538,43.254c0.414,8.053,0.642,16.989,0.642,26.587
		C404.219,230.219,402.427,262.163,397.772,294.884z" style="fill: rgb(75, 75, 75);"></path>
</g>
</svg>
